<?xml version="1.0" encoding="UTF-8" standalone="no"?>
<svg xmlns="http://www.w3.org/2000/svg" width="1440" height="800" viewBox="0 0 1440 800">
  <!-- Dark green background -->
  <rect width="1440" height="800" fill="#083932" />
  
  <!-- Abstract green house shape -->
  <path d="M 200 700 L 400 400 L 600 700 Z" fill="#0A4B42" opacity="0.7" />
  <path d="M 800 700 L 1000 400 L 1200 700 Z" fill="#0A4B42" opacity="0.7" />
  
  <!-- Grid pattern -->
  <g stroke="#B1D931" stroke-width="0.5" opacity="0.15">
    <line x1="0" y1="100" x2="1440" y2="100" />
    <line x1="0" y1="200" x2="1440" y2="200" />
    <line x1="0" y1="300" x2="1440" y2="300" />
    <line x1="0" y1="400" x2="1440" y2="400" />
    <line x1="0" y1="500" x2="1440" y2="500" />
    <line x1="0" y1="600" x2="1440" y2="600" />
    <line x1="0" y1="700" x2="1440" y2="700" />
    
    <line x1="100" y1="0" x2="100" y2="800" />
    <line x1="200" y1="0" x2="200" y2="800" />
    <line x1="300" y1="0" x2="300" y2="800" />
    <line x1="400" y1="0" x2="400" y2="800" />
    <line x1="500" y1="0" x2="500" y2="800" />
    <line x1="600" y1="0" x2="600" y2="800" />
    <line x1="700" y1="0" x2="700" y2="800" />
    <line x1="800" y1="0" x2="800" y2="800" />
    <line x1="900" y1="0" x2="900" y2="800" />
    <line x1="1000" y1="0" x2="1000" y2="800" />
    <line x1="1100" y1="0" x2="1100" y2="800" />
    <line x1="1200" y1="0" x2="1200" y2="800" />
    <line x1="1300" y1="0" x2="1300" y2="800" />
  </g>
  
  <!-- Accent circles and shapes -->
  <circle cx="900" cy="200" r="100" fill="#B1D931" opacity="0.1" />
  <circle cx="300" cy="600" r="150" fill="#B1D931" opacity="0.05" />
  
  <!-- Diagonal lines -->
  <line x1="0" y1="0" x2="1440" y2="800" stroke="#ffffff" stroke-width="0.5" opacity="0.1" />
  <line x1="1440" y1="0" x2="0" y2="800" stroke="#ffffff" stroke-width="0.5" opacity="0.1" />
  
  <!-- Tech dots pattern -->
  <g fill="#ffffff">
    <circle cx="100" cy="100" r="1" opacity="0.6" />
    <circle cx="200" cy="150" r="1" opacity="0.6" />
    <circle cx="300" cy="100" r="1" opacity="0.6" />
    <circle cx="400" cy="200" r="1" opacity="0.6" />
    <circle cx="500" cy="150" r="1" opacity="0.6" />
    <circle cx="600" cy="100" r="1" opacity="0.6" />
    <circle cx="700" cy="200" r="1" opacity="0.6" />
    <circle cx="800" cy="150" r="1" opacity="0.6" />
    <circle cx="900" cy="100" r="1" opacity="0.6" />
    <circle cx="1000" cy="200" r="1" opacity="0.6" />
    <circle cx="1100" cy="150" r="1" opacity="0.6" />
    <circle cx="1200" cy="100" r="1" opacity="0.6" />
    <circle cx="1300" cy="200" r="1" opacity="0.6" />
    
    <circle cx="150" cy="300" r="1" opacity="0.6" />
    <circle cx="250" cy="350" r="1" opacity="0.6" />
    <circle cx="350" cy="300" r="1" opacity="0.6" />
    <circle cx="450" cy="400" r="1" opacity="0.6" />
    <circle cx="550" cy="350" r="1" opacity="0.6" />
    <circle cx="650" cy="300" r="1" opacity="0.6" />
    <circle cx="750" cy="400" r="1" opacity="0.6" />
    <circle cx="850" cy="350" r="1" opacity="0.6" />
    <circle cx="950" cy="300" r="1" opacity="0.6" />
    <circle cx="1050" cy="400" r="1" opacity="0.6" />
    <circle cx="1150" cy="350" r="1" opacity="0.6" />
    <circle cx="1250" cy="300" r="1" opacity="0.6" />
    <circle cx="1350" cy="400" r="1" opacity="0.6" />
    
    <circle cx="100" cy="500" r="1" opacity="0.6" />
    <circle cx="200" cy="550" r="1" opacity="0.6" />
    <circle cx="300" cy="500" r="1" opacity="0.6" />
    <circle cx="400" cy="600" r="1" opacity="0.6" />
    <circle cx="500" cy="550" r="1" opacity="0.6" />
    <circle cx="600" cy="500" r="1" opacity="0.6" />
    <circle cx="700" cy="600" r="1" opacity="0.6" />
    <circle cx="800" cy="550" r="1" opacity="0.6" />
    <circle cx="900" cy="500" r="1" opacity="0.6" />
    <circle cx="1000" cy="600" r="1" opacity="0.6" />
    <circle cx="1100" cy="550" r="1" opacity="0.6" />
    <circle cx="1200" cy="500" r="1" opacity="0.6" />
    <circle cx="1300" cy="600" r="1" opacity="0.6" />
  </g>
  
  <!-- Bright accent lines -->
  <line x1="200" y1="200" x2="400" y2="200" stroke="#B1D931" stroke-width="2" opacity="0.4" />
  <line x1="1000" y1="600" x2="1200" y2="600" stroke="#B1D931" stroke-width="2" opacity="0.4" />
  
  <!-- Digital circuit patterns -->
  <path d="M 100 700 L 100 650 L 150 650 L 150 600 L 200 600" stroke="#B1D931" stroke-width="1" fill="none" opacity="0.3" />
  <path d="M 1300 100 L 1300 150 L 1250 150 L 1250 200 L 1200 200" stroke="#B1D931" stroke-width="1" fill="none" opacity="0.3" />
</svg>