<svg xmlns="http://www.w3.org/2000/svg" width="1440" height="800" viewBox="0 0 1440 800"><defs><linearGradient id="gradient" x1="0%" x2="100%" y1="0%" y2="100%"><stop offset="0%" style="stop-color:#0d4d45;stop-opacity:1"/><stop offset="100%" style="stop-color:#083932;stop-opacity:1"/></linearGradient></defs><rect width="1440" height="800" fill="url(#gradient)"/><g stroke="#B1D931" stroke-width=".5" opacity=".1"><path d="M 100,100 L 140,80 L 180,100 L 180,140 L 140,160 L 100,140 Z"/><path d="M 220,100 L 260,80 L 300,100 L 300,140 L 260,160 L 220,140 Z"/><path d="M 340,100 L 380,80 L 420,100 L 420,140 L 380,160 L 340,140 Z"/><path d="M 460,100 L 500,80 L 540,100 L 540,140 L 500,160 L 460,140 Z"/><path d="M 160,200 L 200,180 L 240,200 L 240,240 L 200,260 L 160,240 Z"/><path d="M 280,200 L 320,180 L 360,200 L 360,240 L 320,260 L 280,240 Z"/><path d="M 400,200 L 440,180 L 480,200 L 480,240 L 440,260 L 400,240 Z"/><path d="M 100,300 L 140,280 L 180,300 L 180,340 L 140,360 L 100,340 Z"/><path d="M 220,300 L 260,280 L 300,300 L 300,340 L 260,360 L 220,340 Z"/><path d="M 340,300 L 380,280 L 420,300 L 420,340 L 380,360 L 340,340 Z"/><path d="M 460,300 L 500,280 L 540,300 L 540,340 L 500,360 L 460,340 Z"/><path d="M 800,100 L 840,80 L 880,100 L 880,140 L 840,160 L 800,140 Z"/><path d="M 920,100 L 960,80 L 1000,100 L 1000,140 L 960,160 L 920,140 Z"/><path d="M 1040,100 L 1080,80 L 1120,100 L 1120,140 L 1080,160 L 1040,140 Z"/><path d="M 860,200 L 900,180 L 940,200 L 940,240 L 900,260 L 860,240 Z"/><path d="M 980,200 L 1020,180 L 1060,200 L 1060,240 L 1020,260 L 980,240 Z"/><path d="M 800,300 L 840,280 L 880,300 L 880,340 L 840,360 L 800,340 Z"/><path d="M 920,300 L 960,280 L 1000,300 L 1000,340 L 960,360 L 920,340 Z"/><path d="M 1040,300 L 1080,280 L 1120,300 L 1120,340 L 1080,360 L 1040,340 Z"/></g><g opacity=".15"><path fill="none" stroke="#B1D931" stroke-width="3" d="M 700,700 L 700,550 Q 700,500 720,480 T 760,450 T 700,420 T 680,380 T 700,350"/><path fill="none" stroke="#B1D931" stroke-width="3" d="M 740,700 L 740,570 Q 740,530 760,510 T 800,480 T 740,450 T 720,410 T 740,380"/><path fill="none" stroke="#B1D931" stroke-width="3" d="M 780,700 L 780,590 Q 780,550 800,530 T 840,500 T 780,470 T 760,430 T 780,400"/></g><g stroke="#fff" stroke-width="1" opacity=".1"><line x1="200" x2="600" y1="500" y2="500"/><line x1="200" x2="550" y1="530" y2="530"/><line x1="200" x2="580" y1="560" y2="560"/><line x1="200" x2="500" y1="590" y2="590"/><line x1="840" x2="1240" y1="500" y2="500"/><line x1="890" x2="1240" y1="530" y2="530"/><line x1="860" x2="1240" y1="560" y2="560"/><line x1="900" x2="1240" y1="590" y2="590"/></g><circle cx="300" cy="650" r="40" fill="#0A4B42" opacity=".3"/><circle cx="1140" cy="650" r="40" fill="#0A4B42" opacity=".3"/><g fill="#B1D931" opacity=".6"><circle cx="200" cy="500" r="2"/><circle cx="200" cy="530" r="2"/><circle cx="200" cy="560" r="2"/><circle cx="200" cy="590" r="2"/><circle cx="600" cy="500" r="2"/><circle cx="550" cy="530" r="2"/><circle cx="580" cy="560" r="2"/><circle cx="500" cy="590" r="2"/><circle cx="840" cy="500" r="2"/><circle cx="890" cy="530" r="2"/><circle cx="860" cy="560" r="2"/><circle cx="900" cy="590" r="2"/><circle cx="1240" cy="500" r="2"/><circle cx="1240" cy="530" r="2"/><circle cx="1240" cy="560" r="2"/><circle cx="1240" cy="590" r="2"/></g></svg>